<svg width="114" height="154" viewBox="0 0 114 154" fill="none" xmlns="http://www.w3.org/2000/svg">
<g clip-path="url(#clip0)">
<path fill-rule="evenodd" clip-rule="evenodd" d="M12.36 79.5092H15.93V99.5307C15.93 106.994 19.93 109.628 27.36 109.628C32.51 109.628 35.14 108.607 36.81 106.678C38.48 104.748 38.57 102.522 38.57 100.174V81.2143C38.57 80.2852 38.93 79.5092 39.97 79.5092H42.68V78.1207H33.12V79.5092H35.12C36.43 79.5092 37.12 80.2852 37.12 81.2143V96.7127C37.12 100.49 37.12 104.043 36.12 105.197C35.37 106.218 34.3834 107.032 33.2488 107.566C32.1142 108.101 30.8672 108.339 29.62 108.26C24.51 108.209 23.47 106.085 23.47 101.838V79.5092H27.27V78.1207H12.27L12.36 79.5092Z" fill="white"></path>
<path fill-rule="evenodd" clip-rule="evenodd" d="M69.9602 87.8303C69.0302 81.2552 63.8202 77.7941 57.5102 77.7941C48.1802 77.7941 43.1802 85.1043 43.1802 94.0583C43.1802 103.012 47.7602 110.149 57.1802 110.149C64.8002 110.149 69.5102 105.483 70.2702 97.7746H66.2702C65.8802 102.88 62.8302 106.688 57.5402 106.688C50.2902 106.688 47.2402 100.807 47.2402 93.752C47.2402 87.3096 50.2902 81.2552 57.4902 81.2552C61.6902 81.2552 65.1202 83.4605 65.9702 87.8303H69.9602Z" fill="white"></path>
<path fill-rule="evenodd" clip-rule="evenodd" d="M72.9102 109.414H77.0601L80.4501 100.113H93.2501L96.5501 109.414H101L89.1801 78.5292H84.7301L72.9102 109.414ZM86.8502 82.2455H86.9301L91.9801 96.6516H81.7202L86.8502 82.2455Z" fill="white"></path>
<path d="M113.12 117.969H0" stroke="white" stroke-width="1.38" stroke-miterlimit="3.86"></path>
<path fill-rule="evenodd" clip-rule="evenodd" d="M37.6202 0.209839L61.0202 29.0014C63.5119 32.1698 65.0811 35.9894 65.5488 40.0245C66.0165 44.0596 65.364 48.1476 63.6655 51.8223C61.9671 55.4969 59.2912 58.6102 55.9431 60.8068C52.5951 63.0035 48.7097 64.1951 44.7302 64.2456C37.2602 64.2456 30.9202 59.9575 26.9802 54.1481L14.5103 38.6701V32.0337L30.1202 51.8713L30.2502 52.0858C33.8502 56.3739 38.6802 60.3659 44.7702 60.3659C48.0261 60.3146 51.2028 59.3326 53.9398 57.5313C56.6767 55.7299 58.8643 53.1815 60.2544 50.175C61.6445 47.1685 62.1814 43.8245 61.8042 40.5222C61.4269 37.22 60.1507 34.0918 58.1202 31.4926L37.6202 6.86661V0.209839Z" fill="white"></path>
<path fill-rule="evenodd" clip-rule="evenodd" d="M56.4402 35.352C57.6657 37.5909 58.2965 40.118 58.2702 42.6826C58.3318 46.3872 56.9512 49.9654 54.4314 52.6319C51.9117 55.2983 48.4586 56.8351 44.8302 56.9048C42.6105 56.8935 40.4287 56.316 38.4832 55.2248C36.5377 54.1335 34.8901 52.5632 33.6902 50.6564L14.5103 26.7247V20.0883L37.3702 48.6758C39.4202 51.6264 41.0702 52.1164 44.6602 52.6371C49.8702 53.3927 54.2002 48.0938 54.2002 42.4886C54.2957 40.8156 53.9686 39.1457 53.2502 37.6389L37.6202 18.6079V11.9409L56.4402 35.352Z" fill="white"></path>
<path fill-rule="evenodd" clip-rule="evenodd" d="M49.9501 38.5068L50.3001 40.9776L49.6001 44.6531C49.6001 44.6531 48.8301 48.4103 48.4901 48.6043C47.1863 49.3832 45.6621 49.6872 44.167 49.4665C42.6719 49.2458 41.2944 48.5134 40.2601 47.3893C41.0166 47.9477 41.9266 48.2479 42.8601 48.2469C43.4651 48.2389 44.0625 48.1092 44.6183 47.8651C45.1741 47.621 45.6772 47.2674 46.0989 46.8245C46.5207 46.3817 46.8526 45.8582 47.0759 45.2841C47.2992 44.71 47.4094 44.0966 47.4001 43.4789C47.4052 42.2938 46.9814 41.1486 46.2101 40.2629L37.6201 29.8999V23.2432L49.9501 38.5068Z" fill="white"></path>
<path fill-rule="evenodd" clip-rule="evenodd" d="M23.9902 62.1833L14.5103 50.4012V43.775L25.3203 57.5378C25.3203 57.5378 37.1302 75.3437 57.8502 63.6637C54.5902 67.1657 48.4802 69.9223 41.6602 69.9223C33.6202 69.9427 27.0402 66.0732 23.9902 62.1833Z" fill="white"></path>
<path fill-rule="evenodd" clip-rule="evenodd" d="M75.5 0.209839L52.12 29.0014C49.6284 32.1698 48.0592 35.9894 47.5915 40.0245C47.1237 44.0596 47.7763 48.1476 49.4748 51.8223C51.1732 55.4969 53.8491 58.6102 57.1972 60.8068C60.5452 63.0035 64.4306 64.1951 68.41 64.2456C75.88 64.2456 82.2201 59.9575 86.16 54.1481L98.64 38.6701V32.0337L83.06 51.8713L82.93 52.0858C79.33 56.3739 74.51 60.3659 68.41 60.3659C65.1533 60.3165 61.9753 59.3358 59.2369 57.5352C56.4985 55.7347 54.3094 53.1863 52.9181 50.1795C51.5268 47.1727 50.9891 43.8278 51.366 40.5247C51.7428 37.2216 53.0191 34.0925 55.05 31.4926L75.52 6.86661L75.5 0.209839Z" fill="white"></path>
<path fill-rule="evenodd" clip-rule="evenodd" d="M56.6801 35.352C55.4547 37.5909 54.8239 40.118 54.8501 42.6826C54.7886 46.389 56.1705 49.9687 58.6925 52.6354C61.2144 55.3021 64.67 56.8377 68.3001 56.9048C70.5185 56.8937 72.699 56.3161 74.6429 55.2248C76.5868 54.1335 78.2325 52.563 79.4301 50.6564L98.6201 26.7247V20.0884L75.7501 48.6758C73.7001 51.6264 72.0501 52.1164 68.4601 52.6371C63.2501 53.3927 58.9301 48.0938 58.9301 42.4886C58.8311 40.8165 59.1548 39.1465 59.8701 37.6389L75.5001 18.6385V11.9716L56.6801 35.352Z" fill="white"></path>
<path fill-rule="evenodd" clip-rule="evenodd" d="M63.1698 38.5068L62.8198 40.9776L63.5198 44.6531C63.5198 44.6531 64.2898 48.4103 64.6298 48.6043C65.9337 49.3832 67.4578 49.6872 68.9529 49.4665C70.448 49.2458 71.8255 48.5134 72.8598 47.3893C72.1033 47.9477 71.1934 48.2479 70.2598 48.2469C69.6549 48.2389 69.0574 48.1092 68.5016 47.8651C67.9459 47.621 67.4427 47.2674 67.021 46.8245C66.5993 46.3817 66.2673 45.8582 66.044 45.2841C65.8207 44.71 65.7106 44.0966 65.7198 43.4789C65.7148 42.2938 66.1385 41.1486 66.9098 40.2629L75.4998 29.8999V23.2432L63.1698 38.5068Z" fill="white"></path>
<path fill-rule="evenodd" clip-rule="evenodd" d="M89.1198 62.1833L98.6097 50.4012V43.775L87.7997 57.5378C87.7997 57.5378 75.9798 75.3437 55.2598 63.6637C58.5198 67.1657 64.6397 69.9223 71.4497 69.9223C79.4997 69.9427 86.1198 66.0732 89.1198 62.1833Z" fill="white"></path>
<path fill-rule="evenodd" clip-rule="evenodd" d="M32.3101 141.636H30.96V145.955C30.6576 145.53 30.2578 145.189 29.7958 144.959C29.3338 144.729 28.8236 144.619 28.3101 144.638C25.8001 144.638 24.5601 146.628 24.5601 149.007C24.5601 151.386 25.8101 153.418 28.3401 153.418C28.8547 153.47 29.3732 153.372 29.8364 153.138C30.2997 152.903 30.689 152.54 30.96 152.091V153.224H32.3101V141.636ZM25.95 149.099C25.95 147.455 26.5701 145.853 28.4101 145.853C30.2501 145.853 31.0001 147.384 31.0001 149.038C31.0001 150.692 30.3 152.203 28.49 152.203C26.6801 152.203 25.95 150.672 25.95 149.099Z" fill="white"></path>
<path fill-rule="evenodd" clip-rule="evenodd" d="M40.3899 150.559C40.2954 151.055 40.0244 151.497 39.6292 151.801C39.234 152.104 38.7426 152.248 38.2499 152.203C37.8954 152.225 37.5405 152.167 37.2103 152.034C36.8802 151.9 36.5829 151.694 36.3395 151.43C36.0961 151.166 35.9126 150.85 35.8021 150.506C35.6916 150.161 35.6567 149.796 35.6999 149.436H41.8499C41.9299 147.394 41.0399 144.638 38.1299 144.638C37.5913 144.654 37.0614 144.782 36.5722 145.012C36.0829 145.243 35.6445 145.573 35.283 145.981C34.9216 146.389 34.6446 146.867 34.4688 147.387C34.293 147.907 34.222 148.459 34.2599 149.007C34.3399 151.57 35.5799 153.418 38.2099 153.418C39.0398 153.479 39.8618 153.219 40.5123 152.689C41.1627 152.159 41.5939 151.399 41.7199 150.559H40.3899ZM35.6999 148.221C35.7012 147.908 35.7631 147.598 35.8821 147.309C36.001 147.02 36.1746 146.759 36.393 146.538C36.6113 146.318 36.8701 146.144 37.1544 146.027C37.4388 145.909 37.7431 145.85 38.0499 145.853C38.6699 145.852 39.2653 146.1 39.7083 146.543C40.1514 146.986 40.4068 147.588 40.4199 148.221H35.6999Z" fill="white"></path>
<path fill-rule="evenodd" clip-rule="evenodd" d="M58.0202 145.117C57.6702 142.657 55.7102 141.36 53.3402 141.36C49.8502 141.36 47.9702 144.096 47.9702 147.486C47.9702 150.876 49.6902 153.53 53.2202 153.53C53.845 153.57 54.4713 153.481 55.061 153.266C55.6508 153.052 56.1917 152.717 56.6508 152.282C57.11 151.848 57.478 151.323 57.7323 150.739C57.9866 150.155 58.122 149.524 58.1302 148.885H56.6202C56.6298 149.327 56.5515 149.767 56.39 150.178C56.2286 150.589 55.9873 150.962 55.6808 151.275C55.3743 151.587 55.0089 151.834 54.6066 151.999C54.2044 152.163 53.7736 152.243 53.3402 152.234C50.6302 152.234 49.4802 150.018 49.4802 147.374C49.4802 144.954 50.6302 142.687 53.3302 142.687C54.0635 142.628 54.7926 142.846 55.3789 143.3C55.9652 143.753 56.3678 144.411 56.5102 145.148L58.0202 145.117Z" fill="white"></path>
<path fill-rule="evenodd" clip-rule="evenodd" d="M62.4001 143.678H63.4001L65.4901 141.36H63.7502L62.4001 143.678ZM65.1902 150.304C65.1902 151.059 64.4601 152.203 62.6801 152.203C61.8601 152.203 61.0901 151.876 61.0901 150.968C61.0901 150.059 61.8602 149.62 62.7502 149.457C63.5905 149.417 64.4171 149.224 65.1902 148.885V150.304ZM67.3901 152.121C67.2589 152.172 67.1203 152.199 66.9801 152.203C66.5501 152.203 66.5501 151.907 66.5501 151.264V146.945C66.5501 144.974 64.9401 144.638 63.4601 144.638C61.6301 144.638 60.0601 145.362 59.9801 147.445H61.3301C61.3901 146.21 62.2402 145.853 63.3802 145.853C64.2402 145.853 65.2101 146.047 65.2101 147.251C65.2101 148.272 63.9402 148.191 62.4402 148.487C60.9402 148.783 59.6602 149.161 59.6602 151.06C59.6602 152.734 60.8902 153.418 62.3802 153.418C62.9262 153.436 63.4694 153.33 63.9695 153.105C64.4697 152.881 64.9142 152.544 65.2701 152.121C65.2701 153.03 65.7201 153.418 66.4201 153.418C66.7675 153.44 67.1139 153.362 67.4201 153.193L67.3901 152.121Z" fill="white"></path>
<path fill-rule="evenodd" clip-rule="evenodd" d="M76.3098 141.636H74.9598V145.955C74.6546 145.531 74.2529 145.19 73.7894 144.96C73.3259 144.731 72.8146 144.62 72.2998 144.638C69.7898 144.638 68.5498 146.628 68.5498 149.007C68.5498 151.386 69.7998 153.418 72.3298 153.418C72.8457 153.468 73.365 153.37 73.8295 153.136C74.294 152.901 74.6854 152.539 74.9598 152.091V153.224H76.3098V141.636ZM69.9498 149.099C69.9498 147.455 70.5698 145.853 72.4098 145.853C74.2498 145.853 75.0098 147.384 75.0098 149.038C75.0098 150.692 74.3098 152.203 72.4898 152.203C70.6698 152.203 69.9498 150.672 69.9498 149.099Z" fill="white"></path>
<path fill-rule="evenodd" clip-rule="evenodd" d="M78.79 153.224H80.12V144.832H78.77L78.79 153.224ZM80.12 141.636H78.77V143.32H80.12V141.636Z" fill="white"></path>
<path fill-rule="evenodd" clip-rule="evenodd" d="M81.8901 153.224H88.8201V152.009H83.5801L88.6001 145.771V144.832H82.2101V146.047H86.8501L81.8901 152.172V153.224Z" fill="white"></path>
<path fill-rule="evenodd" clip-rule="evenodd" d="M23.0099 124.198H21.4998V131.6C21.4998 133.642 20.4498 134.765 18.4998 134.765C18.0788 134.816 17.6518 134.77 17.2506 134.63C16.8494 134.49 16.4844 134.259 16.1826 133.955C15.8809 133.651 15.6502 133.281 15.5077 132.873C15.3653 132.465 15.3147 132.03 15.3598 131.6V124.198H13.8398V131.6C13.8398 134.663 15.5798 136.061 18.4998 136.061C21.4198 136.061 22.9698 134.52 22.9698 131.6L23.0099 124.198Z" fill="white"></path>
<path fill-rule="evenodd" clip-rule="evenodd" d="M25.5298 135.786H26.8798V131.048C26.8397 130.706 26.8737 130.358 26.9795 130.03C27.0853 129.703 27.2602 129.403 27.4919 129.151C27.7236 128.9 28.0065 128.704 28.3206 128.577C28.6347 128.449 28.9724 128.394 29.3098 128.414C29.5328 128.396 29.757 128.427 29.9671 128.506C30.1772 128.584 30.3681 128.708 30.5268 128.869C30.6854 129.03 30.8081 129.224 30.8863 129.438C30.9645 129.652 30.9964 129.881 30.9798 130.109V135.786H32.3298V130.272C32.3298 128.465 31.6598 127.209 29.4998 127.209C28.9596 127.18 28.4222 127.308 27.9498 127.577C27.4774 127.846 27.0891 128.246 26.8298 128.731V127.403H25.5598L25.5298 135.786Z" fill="white"></path>
<path fill-rule="evenodd" clip-rule="evenodd" d="M34.77 135.786H36.12V127.393H34.77V135.786ZM36.12 124.198H34.77V125.872H36.12V124.198Z" fill="white"></path>
<path fill-rule="evenodd" clip-rule="evenodd" d="M45.2402 127.393H43.8302L41.5902 134.387H41.5502L39.2502 127.393H37.7402L40.7902 135.786H42.2402L45.2402 127.393Z" fill="white"></path>
<path fill-rule="evenodd" clip-rule="evenodd" d="M52.4799 133.121C52.3855 133.615 52.1159 134.055 51.7229 134.359C51.3298 134.662 50.8409 134.807 50.3499 134.765C49.9955 134.788 49.6404 134.732 49.3098 134.599C48.9792 134.467 48.6812 134.262 48.4369 133.999C48.1926 133.736 48.008 133.421 47.8961 133.077C47.7843 132.733 47.7481 132.368 47.7899 132.008H53.9499C54.0299 129.966 53.1399 127.199 50.2299 127.199C47.9799 127.199 46.3599 129.047 46.3599 131.569C46.3599 134.091 47.6799 135.98 50.3099 135.98C51.1398 136.041 51.9618 135.781 52.6122 135.251C53.2627 134.721 53.6938 133.961 53.8199 133.121H52.4799ZM47.7899 130.783C47.7978 130.15 48.0502 129.546 48.4922 129.102C48.9343 128.659 49.53 128.411 50.1499 128.414C50.7691 128.417 51.363 128.665 51.8055 129.108C52.248 129.55 52.5043 130.151 52.5199 130.783H47.7899Z" fill="white"></path>
<path fill-rule="evenodd" clip-rule="evenodd" d="M55.6201 135.786H56.9701V132.049C56.9701 129.925 57.7601 128.659 59.9701 128.659V127.199C59.3306 127.156 58.6942 127.323 58.1544 127.676C57.6145 128.028 57.1995 128.548 56.9701 129.16V127.393H55.6201V135.786Z" fill="white"></path>
<path fill-rule="evenodd" clip-rule="evenodd" d="M60.75 133.141C60.83 135.183 62.39 135.98 64.23 135.98C65.9 135.98 67.73 135.336 67.73 133.335C67.73 131.712 66.4 131.293 65.04 130.946C63.68 130.599 62.36 130.477 62.36 129.486C62.36 128.496 63.29 128.414 64.11 128.414C64.93 128.414 65.92 128.761 66.01 129.833H67.37C67.25 127.791 65.81 127.199 63.99 127.199C62.56 127.199 60.93 127.894 60.93 129.588C60.93 131.283 62.28 131.63 63.61 131.957C64.94 132.284 66.3 132.447 66.3 133.519C66.3 134.591 65.16 134.765 64.3 134.765C63.19 134.765 62.14 134.377 62.09 133.141H60.75Z" fill="white"></path>
<path fill-rule="evenodd" clip-rule="evenodd" d="M69.6299 135.786H70.9799V127.393H69.6299V135.786ZM70.9799 124.198H69.6299V125.872H70.9799V124.198Z" fill="white"></path>
<path fill-rule="evenodd" clip-rule="evenodd" d="M80.74 124.198H79.39V128.516C79.0848 128.093 78.6831 127.751 78.2196 127.522C77.7561 127.292 77.2448 127.182 76.73 127.199C74.22 127.199 72.98 129.241 72.98 131.569C72.98 133.897 74.24 135.98 76.76 135.98C77.2759 136.03 77.7952 135.932 78.2597 135.697C78.7242 135.463 79.1156 135.101 79.39 134.652V135.786H80.74V124.198ZM74.38 131.661C74.38 130.027 75 128.414 76.85 128.414C78.7 128.414 79.44 129.946 79.44 131.6C79.44 133.254 78.74 134.765 76.92 134.765C75.1 134.765 74.38 133.233 74.38 131.661Z" fill="white"></path>
<path fill-rule="evenodd" clip-rule="evenodd" d="M88.2302 132.866C88.2302 133.631 87.5002 134.765 85.7202 134.765C84.8902 134.765 84.1302 134.438 84.1302 133.529C84.1302 132.621 84.8902 132.182 85.7802 132.018C86.6234 131.983 87.4533 131.793 88.2302 131.457V132.866ZM90.4302 134.683C90.2955 134.734 90.1537 134.761 90.0102 134.765C89.5802 134.765 89.5802 134.469 89.5802 133.825V129.507C89.5802 127.536 87.9802 127.199 86.5002 127.199C84.6702 127.199 83.1002 127.934 83.0202 130.007H84.3702C84.4302 128.772 85.2702 128.414 86.4202 128.414C87.2802 128.414 88.2502 128.608 88.2502 129.813C88.2502 130.834 86.9802 130.752 85.4802 131.048C83.9802 131.344 82.7002 131.732 82.7002 133.631C82.7002 135.296 83.9202 135.98 85.4202 135.98C85.9661 135.997 86.5091 135.89 87.0092 135.666C87.5092 135.441 87.9538 135.106 88.3102 134.683C88.3102 135.592 88.7602 135.98 89.4602 135.98C89.8075 136.001 90.1536 135.923 90.4602 135.755L90.4302 134.683Z" fill="white"></path>
<path fill-rule="evenodd" clip-rule="evenodd" d="M99.3501 124.198H98.0001V128.516C97.6977 128.092 97.2979 127.75 96.8358 127.521C96.3738 127.291 95.8636 127.181 95.3501 127.199C92.8401 127.199 91.6001 129.241 91.6001 131.569C91.6001 133.897 92.8501 135.98 95.3801 135.98C95.8947 136.031 96.4132 135.934 96.8764 135.699C97.3397 135.465 97.729 135.102 98.0001 134.652V135.786H99.3501V124.198ZM92.9901 131.661C92.9901 130.027 93.6101 128.414 95.4501 128.414C97.2901 128.414 98.0401 129.946 98.0401 131.6C98.0401 133.254 97.3401 134.765 95.5301 134.765C93.7201 134.765 92.9901 133.233 92.9901 131.661Z" fill="white"></path>
</g>
<defs>
<clipPath id="clip0">
<rect width="113.12" height="153.29" fill="white" transform="translate(0 0.209839)"></rect>
</clipPath>
</defs>
</svg>